# xmcd
#
# Track frame offsets:
# 150
# 22022
# 49576
# 87948
# 105160
# 135777
# 163877
# 210681
# 235471
# 262433
# 295885
#
# Disc length: 4336 seconds
#
#
# Revision: 0
# Processed by: cddbd v1.5.1PL2 Copyright (c) Steve Scherf et al.
# Submitted via: FreeRIP 2.70 
#
DISCID=9a10ee0b
DTITLE=The Afro House Of Irma - Afrodesia Vol. 2
DYEAR=2001
DGENRE=Jazz
TTITLE0=Jessica Lauren - The Name Of Fela Will Always Stand For Freedom
TTITLE1=Monday Michiru - Higher (Spiritual Life Dub)
TTITLE2=Mysterious Traveller - Green Africa
TTITLE3=Art Konik - Afro Money
TTITLE4=Unitedeye Vs. Souldrummers - Sambana
TTITLE5=Belladonna - Black Is Back
TTITLE6=Su-Paka-Pooh - Spiral
TTITLE7=U.F.O. - Tres Amigos (Organic Audio Mix)
TTITLE8=The Groove Re Gatta - Hey Brother
TTITLE9=RAS - Exit Routine
TTITLE10=Jaymz Nylon - Shango
EXTD=YEAR: 2001
EXTT0=
EXTT1=
EXTT2=
EXTT3=
EXTT4=
EXTT5=
EXTT6=
EXTT7=
EXTT8=
EXTT9=
EXTT10=
PLAYORDER=
